<svg width="186" height="134" viewBox="0 0 186 134" fill="none" xmlns="http://www.w3.org/2000/svg">
<path id="Vector" fill-rule="evenodd" clip-rule="evenodd" d="M75.3458 109.799C75.1561 110.164 74.6006 113.864 76.7821 113.864C77.1632 113.864 77.5319 113.728 77.8205 113.479C78.1092 113.23 78.2985 112.886 78.3539 112.509C78.8146 108.362 76.1046 108.376 75.3458 109.799ZM94.9933 109.744C95.1153 111.181 95.2779 112.454 96.7142 112.454C97.0953 112.455 97.4639 112.319 97.7526 112.07C98.0412 111.821 98.2306 111.476 98.286 111.099C98.3152 110.228 98.2194 109.356 98.0014 108.511C97.2155 107.061 94.7901 107.414 94.9933 109.744ZM85.5083 122.834C85.9284 122.834 89.5733 122.658 90.427 121.994C90.6844 121.804 90.6573 121.438 90.6573 121.099C90.5761 117.256 90.2047 113.424 89.5462 109.636C89.5462 109.433 89.3701 109.392 89.2617 109.419C89.1533 109.446 89.0991 109.636 89.1126 109.961C89.1126 111.072 89.0178 111.452 89.4107 117.671C89.6682 121.736 89.5598 120.598 89.6411 121.275C88.3704 121.741 87.0657 122.108 85.7387 122.373C84.8579 122.563 85.4812 122.834 85.5083 122.834ZM89.7901 132.21C88.7848 132.749 87.6762 133.068 86.5381 133.145C86.4806 133.145 86.4255 133.168 86.3848 133.209C86.3442 133.249 86.3213 133.305 86.3213 133.362C86.3213 133.42 86.3442 133.475 86.3848 133.515C86.4255 133.556 86.4806 133.579 86.5381 133.579C87.1747 133.808 87.8548 133.89 88.5276 133.82C89.2005 133.75 89.8488 133.529 90.4244 133.173C91 132.818 91.488 132.337 91.8521 131.767C92.2161 131.196 92.4469 130.551 92.5272 129.88C92.5343 129.852 92.536 129.823 92.532 129.795C92.528 129.767 92.5185 129.74 92.504 129.715C92.4896 129.691 92.4704 129.669 92.4476 129.652C92.4249 129.635 92.399 129.623 92.3714 129.615C92.3438 129.608 92.3151 129.607 92.2869 129.611C92.2587 129.615 92.2316 129.624 92.207 129.639C92.1825 129.653 92.161 129.672 92.1439 129.695C92.1268 129.718 92.1143 129.744 92.1072 129.771C91.5585 130.771 90.7602 131.611 89.7901 132.21ZM29.059 27.7127C32.5414 39.3521 44.8583 38.783 46.2946 39.6502C46.2946 39.7857 49.113 50.6393 50.2512 52.1298C50.8881 52.9563 52.4192 52.6311 53.4355 52.4414C55.8203 51.9672 58.5845 51.8181 60.6034 50.2057C61.1183 49.7856 60.8202 48.0783 60.6847 47.4957C60.2534 45.0593 59.6558 42.6553 58.8961 40.3006C58.5973 39.5902 58.3439 38.8616 58.1373 38.1191C59.0724 37.2908 60.0894 36.5598 61.1725 35.9375C62.9604 34.7196 64.5507 33.2344 65.8879 31.5338C68.4752 27.7435 69.6448 23.163 69.1913 18.5963C68.7379 14.0297 66.6904 9.76862 63.4083 6.56114C53.3677 -3.28971 35.2107 -0.0783611 29.3165 12.347C27.2975 16.6559 27.6905 23.187 29.059 27.7127ZM59.9801 49.5553C58.178 51.0051 55.5222 51.1948 53.2051 51.6691C52.5818 51.8046 51.1049 52.1704 50.7119 51.6691C49.9452 50.5624 49.3936 49.3213 49.0859 48.0106C52.5958 47.5159 56.0288 46.578 59.3026 45.2193C59.7455 46.6222 59.9739 48.0841 59.9801 49.5553ZM59.1536 44.6637C55.6913 45.309 52.2912 46.252 48.9911 47.4821C48.6411 45.9095 48.1885 44.3615 47.6361 42.848C51.1369 42.4814 54.5703 41.6333 57.8392 40.3277C58.3859 41.7601 58.8386 43.2266 59.1942 44.7179L59.1536 44.6637ZM30.1701 12.767C35.8476 1.03274 53.2051 -1.93471 62.6901 7.34704C65.773 10.3708 67.7015 14.3774 68.142 18.6731C68.5825 22.9688 67.5071 27.2833 65.102 30.8698C62.7579 34.176 58.0154 36.4524 57.2837 37.6448C57.0262 38.0649 57.5005 39.1353 57.7986 39.8941C56.2539 40.1922 54.5601 40.5581 53.0425 40.8968C52.636 39.0405 50.739 31.5473 50.0344 29.7858C49.7634 29.0812 49.5195 29.1354 48.8014 29.3387C44.8448 29.3387 40.4952 28.336 39.0996 24.6097C38.931 24.1729 38.8128 23.7183 38.7473 23.2547C38.5576 21.3035 40.1023 19.0271 41.8096 19.1897C41.5657 20.6802 41.8096 23.5257 43.0833 24.3794C44.357 25.233 45.7933 23.878 45.7933 22.6585C45.721 21.7791 45.4352 20.9307 44.9605 20.1868C44.4859 19.443 43.8368 18.8263 43.0697 18.3903C43.2827 17.9066 43.5984 17.4749 43.9948 17.1253C44.3913 16.7758 44.859 16.5166 45.3656 16.3658C45.8721 16.2149 46.4055 16.1761 46.9286 16.2519C47.4516 16.3278 47.952 16.5165 48.3949 16.8049C47.3244 18.8916 48.3949 23.6748 50.2919 22.5501C52.1889 21.4255 51.5656 18.6613 50.3867 17.1301C49.8176 16.3849 49.6957 16.5881 49.9802 16.3713C52.1889 14.7589 54.6956 16.6288 55.7525 19.0813C57.2701 22.4553 54.0181 26.6151 51.9585 27.8753C51.9082 27.9058 51.8721 27.9551 51.8581 28.0123C51.8441 28.0695 51.8535 28.1299 51.884 28.1802C51.9145 28.2305 51.9638 28.2666 52.021 28.2806C52.0782 28.2945 52.1386 28.2852 52.1889 28.2547C54.7092 26.7777 57.8934 22.4282 56.4436 18.7697C54.9937 15.1112 51.3488 13.702 49.0453 15.8835C48.4653 15.4856 47.8033 15.2228 47.1083 15.1146C46.4133 15.0064 45.7028 15.0556 45.0293 15.2584C44.3557 15.4612 43.7363 15.8126 43.2166 16.2866C42.6969 16.7607 42.2901 17.3453 42.0264 17.9973C39.5061 17.6721 37.3787 20.6125 37.6633 23.2818C37.8163 24.4616 38.2623 25.5844 38.9605 26.5476C39.6587 27.5109 40.5869 28.2841 41.6605 28.7967C42.9342 29.4064 47.4599 30.5175 49.2485 30.0026C49.8718 31.3576 52.1347 39.3115 52.5412 40.9781C46.525 42.3331 47.7445 42.97 47.4464 42.0892C47.0941 40.9917 46.8773 39.3792 46.5792 39.2708C39.0996 37.5771 32.3517 36.3305 29.8314 27.4552C28.5983 23.1599 28.2731 16.7914 30.1701 12.767ZM42.7445 19.4607C43.258 19.8251 43.6871 20.2955 44.0027 20.8403C44.3183 21.385 44.5131 21.9913 44.5738 22.6179C44.5738 22.9837 43.7472 23.9729 43.2188 22.8889C42.8142 21.7944 42.6704 20.6206 42.7987 19.4607H42.7445ZM49.1401 17.3876C50.2241 18.4445 50.9016 20.9106 49.7228 21.6287C49.3141 21.0106 49.0496 20.3086 48.9488 19.5745C48.8479 18.8404 48.9133 18.093 49.1401 17.3876ZM8.49012 69.1079C14.005 67.3871 20.6851 68.8776 23.2596 74.9751C27.7176 85.3002 15.9291 90.5576 16.051 91.0996C16.322 92.4546 16.8098 94.8258 17.0131 96.1944C17.0292 96.3094 17.0904 96.4132 17.1832 96.4831C17.2759 96.553 17.3926 96.5832 17.5076 96.567C17.6226 96.5508 17.7265 96.4897 17.7964 96.3969C17.8663 96.3041 17.8964 96.1874 17.8803 96.0724C17.7177 94.7174 17.5415 92.7662 17.3518 91.357C19.2676 90.5885 21.0404 89.5029 22.5957 88.1457C32.162 76.8585 21.4846 62.6175 7.83972 67.0754C5.67913 67.7054 3.7682 68.9923 2.37208 70.7575C0.97595 72.5227 0.163857 74.6787 0.048473 76.9263C-0.385127 82.265 3.86957 86.872 10.7394 86.2758C10.843 86.2575 10.9368 86.2034 11.0044 86.1229C11.072 86.0423 11.109 85.9406 11.109 85.8354C11.109 85.7303 11.072 85.6285 11.0044 85.5479C10.9368 85.4674 10.843 85.4133 10.7394 85.395C4.64192 85.7067 1.37637 81.33 1.95902 77.1295C2.094 75.2842 2.79295 73.5249 3.96118 72.0901C5.12941 70.6553 6.71045 69.6142 8.49012 69.1079ZM109.695 33.756C109.81 33.7865 109.932 33.7701 110.035 33.7104C110.138 33.6507 110.213 33.5526 110.244 33.4376C110.274 33.3226 110.258 33.2001 110.198 33.0972C110.139 32.9943 110.04 32.9193 109.925 32.8888C104.058 31.2357 102.365 26.046 104.262 22.2385C105 20.538 106.244 19.1058 107.825 18.1362C109.405 17.1667 111.245 16.7066 113.096 16.8185C123.286 17.0759 127.757 26.4525 123.936 33.1462C121.402 37.7261 118.015 38.9592 113.679 39.5283C113.542 39.5475 113.415 39.6108 113.317 39.7086C113.219 39.8064 113.156 39.9333 113.137 40.0703C112.988 41.3169 112.663 43.7694 112.419 45.1922C112.395 45.3054 112.418 45.4232 112.481 45.5198C112.545 45.6164 112.644 45.6837 112.757 45.7071C112.871 45.7304 112.988 45.7079 113.085 45.6443C113.182 45.5808 113.249 45.4815 113.272 45.3683C113.584 43.9049 114.004 42.1841 114.289 40.7342C116.347 40.6235 118.372 40.1654 120.278 39.3792C124.871 36.6692 127.662 32.3874 127.297 26.9674C126.443 14.244 107.879 9.69119 102.541 21.5474C100.468 26.3712 102.988 32.2384 109.695 33.756ZM184.979 97.3326C184.824 94.8209 183.928 92.4116 182.404 90.4085C180.939 88.7596 179.151 87.4281 177.152 86.496C175.153 85.5639 172.984 85.0509 170.778 84.9885C168.534 84.8845 166.312 85.4806 164.421 86.6943C162.53 87.9081 161.063 89.6795 160.223 91.7635C158.096 96.6822 160.657 102.414 167.337 104.04C167.396 104.067 167.461 104.08 167.526 104.079C167.592 104.078 167.656 104.063 167.715 104.035C167.773 104.006 167.825 103.966 167.867 103.915C167.908 103.864 167.938 103.805 167.954 103.742C167.97 103.679 167.972 103.613 167.96 103.549C167.947 103.485 167.921 103.424 167.883 103.371C167.845 103.318 167.796 103.274 167.739 103.242C167.682 103.21 167.619 103.191 167.554 103.186C161.727 101.425 159.993 96.4112 161.903 92.5359C162.642 90.8354 163.886 89.4032 165.466 88.4336C167.047 87.4641 168.887 87.004 170.738 87.1159C172.617 87.1681 174.466 87.6009 176.173 88.3881C177.88 89.1753 179.41 90.3005 180.67 91.6958C181.939 93.3523 182.693 95.3456 182.838 97.4274C183.8 109.379 170.928 109.419 170.806 110.368C170.643 111.723 170.345 114.107 170.087 115.49C170.064 115.603 170.087 115.721 170.15 115.817C170.214 115.914 170.313 115.981 170.426 116.004C170.539 116.028 170.657 116.005 170.754 115.942C170.85 115.878 170.918 115.779 170.941 115.666C171.266 114.216 171.673 112.481 171.957 111.032C174.019 110.916 176.048 110.458 177.96 109.677C182.486 107.021 185.345 102.807 184.979 97.3326ZM23.0428 106.465C23.6255 104.053 21.8775 101.52 20.1431 101.723C19.0183 101.601 17.8855 101.569 16.7556 101.628C13.8153 102.333 12.4332 106.181 15.1974 108.064C18.3681 110.178 22.4737 108.715 23.0428 106.465ZM20.9426 106.194C20.4614 106.596 19.872 106.846 19.2488 106.912C15.5632 107.427 14.7773 104.202 17.257 103.146L20.1702 102.604C21.4304 102.712 21.7149 105.408 20.9426 106.127V106.194ZM111.294 50.3683C108.137 49.2165 104.722 52.7802 106.958 55.7883C109.194 58.7964 113.625 58.7964 114.898 56.791C116.172 54.7856 115.4 51.7504 113.692 51.371C113.543 51.3032 112.364 50.7612 111.294 50.3683ZM113.001 55.7883C112.395 55.9946 111.746 56.0406 111.117 55.9219C110.488 55.8032 109.9 55.5237 109.411 55.1108C109.01 54.8233 108.681 54.4478 108.448 54.0132C108.056 52.9157 109.465 51.791 110.495 51.7233L113.421 52.1433C114.56 52.7531 113.99 55.4089 113.001 55.8289V55.7883ZM171.32 121.75C171.049 121.628 169.654 121.045 168.936 120.774C165.765 119.622 162.364 123.186 164.6 126.194C166.835 129.202 171.253 129.202 172.54 127.197C173.827 125.191 173.041 122.129 171.32 121.75ZM170.629 126.235C170.023 126.44 169.374 126.485 168.745 126.366C168.116 126.248 167.529 125.969 167.039 125.557C166.642 125.26 166.314 124.881 166.077 124.446C165.697 123.362 167.093 122.237 168.123 122.17L171.049 122.59C172.188 123.159 171.619 125.801 170.629 126.235Z" fill="#AA4A41"/>
</svg>
