<svg xmlns="http://www.w3.org/2000/svg" width="20" height="18" viewBox="0 0 20 18" fill="none">
    <path fill-rule="evenodd" clip-rule="evenodd"
        d="M15.6568 7.69798H15.6318C15.2178 7.68298 14.8928 7.33698 14.9068 6.92298C14.9388 5.97198 14.4738 5.35498 13.6628 5.27198C13.2508 5.22998 12.9508 4.86198 12.9928 4.44998C13.0358 4.03898 13.4058 3.73598 13.8158 3.77998C15.4238 3.94398 16.4648 5.22698 16.4058 6.97298C16.3918 7.37898 16.0588 7.69798 15.6568 7.69798ZM15.5748 0.283978C13.8548 -0.266022 11.4738 -0.0380225 9.98779 1.64798C8.42679 -0.0260226 6.12679 -0.269022 4.41879 0.284978C0.503793 1.54498 -0.717207 6.08098 0.396793 9.55998V9.56098C2.15479 15.032 7.99979 17.983 10.0018 17.983C11.7888 17.983 17.8658 15.087 19.6038 9.55998C20.7178 6.08198 19.4938 1.54598 15.5748 0.283978Z"
        fill="#4A90E2" />
</svg>