<svg xmlns="http://www.w3.org/2000/svg" width="18" height="18" viewBox="0 0 18 18" fill="none">
    <path d="M7.48388 14.2445H1.01135" stroke="#AA4A41" stroke-width="1.5" stroke-linecap="round"
        stroke-linejoin="round" />
    <path fill-rule="evenodd" clip-rule="evenodd"
        d="M11.5452 14.2454C11.5452 16.2872 12.2261 16.9672 14.267 16.9672C16.3079 16.9672 16.9887 16.2872 16.9887 14.2454C16.9887 12.2037 16.3079 11.5237 14.267 11.5237C12.2261 11.5237 11.5452 12.2037 11.5452 14.2454Z"
        stroke="#AA4A41" stroke-width="1.5" stroke-linecap="round" stroke-linejoin="round" />
    <path d="M10.5167 3.7559H16.9884" stroke="#AA4A41" stroke-width="1.5" stroke-linecap="round"
        stroke-linejoin="round" />
    <path fill-rule="evenodd" clip-rule="evenodd"
        d="M6.45546 3.75457C6.45546 1.71367 5.77457 1.03278 3.73367 1.03278C1.69188 1.03278 1.01099 1.71367 1.01099 3.75457C1.01099 5.79635 1.69188 6.47635 3.73367 6.47635C5.77457 6.47635 6.45546 5.79635 6.45546 3.75457Z"
        stroke="#AA4A41" stroke-width="1.5" stroke-linecap="round" stroke-linejoin="round" />
</svg>