<svg xmlns="http://www.w3.org/2000/svg" width="40" height="42" viewBox="0 0 40 42" fill="none">
    <path
        d="M6.26891 9.83744C11.0814 9.61036 15.8918 9.37494 20.7064 9.20411C22.9418 9.12494 25.1772 9.05619 27.4127 9.02703C29.5481 8.99994 31.8606 8.72078 33.8668 9.62286C40.7481 12.7208 37.846 25.1687 33.0897 28.8645C29.7752 31.4395 24.4752 31.6312 20.4522 31.527C16.7189 31.4333 12.2147 31.0062 9.07308 28.7687C3.6585 24.9124 6.48766 14.4041 6.31058 7.21869C6.41683 3.19786 2.05225 2.54578 2.05225 2.54578"
        stroke="currentColor" stroke-width="4" stroke-linecap="round" stroke-linejoin="round" />
    <path d="M21.8439 17.1291H27.621" stroke="currentColor" stroke-width="1.5" stroke-linecap="round"
        stroke-linejoin="round" />
    <path fill-rule="evenodd" clip-rule="evenodd"
        d="M9.89396 37.1853C10.519 37.1853 11.0273 37.6936 11.0273 38.3186C11.0273 38.9457 10.519 39.454 9.89396 39.454C9.26688 39.454 8.75854 38.9457 8.75854 38.3186C8.75854 37.6936 9.26688 37.1853 9.89396 37.1853"
        fill="#19304B" />
    <path fill-rule="evenodd" clip-rule="evenodd"
        d="M9.89396 37.1853C10.519 37.1853 11.0273 37.6936 11.0273 38.3186C11.0273 38.9457 10.519 39.454 9.89396 39.454C9.26688 39.454 8.75854 38.9457 8.75854 38.3186C8.75854 37.6936 9.26688 37.1853 9.89396 37.1853Z"
        stroke="currentColor" stroke-width="4" stroke-linecap="round" stroke-linejoin="round" />
    <path fill-rule="evenodd" clip-rule="evenodd"
        d="M31.4167 37.1853C32.0437 37.1853 32.5521 37.6936 32.5521 38.3186C32.5521 38.9457 32.0437 39.454 31.4167 39.454C30.7917 39.454 30.2833 38.9457 30.2833 38.3186C30.2833 37.6936 30.7917 37.1853 31.4167 37.1853"
        fill="#19304B" />
    <path fill-rule="evenodd" clip-rule="evenodd"
        d="M31.4167 37.1853C32.0437 37.1853 32.5521 37.6936 32.5521 38.3186C32.5521 38.9457 32.0437 39.454 31.4167 39.454C30.7917 39.454 30.2833 38.9457 30.2833 38.3186C30.2833 37.6936 30.7917 37.1853 31.4167 37.1853Z"
        stroke="currentColor" stroke-width="4" stroke-linecap="round" stroke-linejoin="round" />
</svg>