<svg xmlns="http://www.w3.org/2000/svg" width="14" height="14" viewBox="0 0 14 14" fill="none">
    <path fill-rule="evenodd" clip-rule="evenodd"
        d="M12.3949 6.50502C12.6682 6.77839 12.6682 7.2216 12.3949 7.49497L7.49488 12.395C7.22151 12.6683 6.7783 12.6683 6.50493 12.395L1.60493 7.49497C1.46822 7.35826 1.39988 7.17908 1.3999 6.99991V3.49999C1.3999 2.3402 2.3401 1.39999 3.4999 1.39999H7.00009C7.17918 1.40004 7.35824 1.46838 7.49488 1.60502L12.3949 6.50502ZM3.4999 4.19999C3.8865 4.19999 4.1999 3.88659 4.1999 3.49999C4.1999 3.11339 3.8865 2.79999 3.4999 2.79999C3.1133 2.79999 2.7999 3.11339 2.7999 3.49999C2.7999 3.88659 3.1133 4.19999 3.4999 4.19999Z"
        fill="#828282" />
</svg>