<svg xmlns="http://www.w3.org/2000/svg" width="11" height="14" viewBox="0 0 11 14" fill="none">
    <path fill-rule="evenodd" clip-rule="evenodd"
        d="M5.89628 13.4414C3.43507 13.4414 1.33325 13.0584 1.33325 11.5246C1.33325 9.9907 3.42174 8.57474 5.89628 8.57474C8.35749 8.57474 10.4593 9.97698 10.4593 11.5108C10.4593 13.0441 8.37083 13.4414 5.89628 13.4414Z"
        stroke="#B9B9B9" stroke-linecap="round" stroke-linejoin="round" />
    <path fill-rule="evenodd" clip-rule="evenodd"
        d="M5.89142 6.44922C7.50657 6.44922 8.81566 5.14013 8.81566 3.52498C8.81566 1.90983 7.50657 0.600128 5.89142 0.600128C4.27627 0.600128 2.96657 1.90983 2.96657 3.52498C2.96112 5.13467 4.26112 6.44377 5.87081 6.44922C5.87809 6.44922 5.88475 6.44922 5.89142 6.44922Z"
        stroke="#B9B9B9" stroke-linecap="round" stroke-linejoin="round" />
</svg>